<svg xmlns="http://www.w3.org/2000/svg" viewBox="0 0 5120 5120"><g fill="rgb(54,228,223)"><g><path d="M3033 5000 c-80 -16 -123 -50 -162 -127 -29 -58 -30 -237 -2 -298 37 -82 118 -134 206 -135 102 0 172 38 206 115 28 62 26 65 -41 65 -48 0 -60 -3 -60 -16 0 -27 -56 -74 -89 -74 -84 0 -121 59 -121 193 0 142 31 187 127 187 65 0 83 -16 83 -76 l0 -44 -50 0 -50 0 0 -40 0 -40 110 0 110 0 0 113 0 114 -47 26 c-43 23 -74 31 -153 42 -14 2 -44 -1 -67 -5z"></path><path d="M1830 4725 l0 -275 65 0 64 0 3 123 3 122 85 -122 84 -123 74 0 c68 0 72 1 60 18 -7 10 -46 61 -85 113 -40 53 -73 102 -73 110 0 8 37 75 81 149 45 74 84 141 86 148 4 9 -13 12 -64 12 l-69 0 -44 -77 c-24 -43 -52 -91 -63 -106 l-19 -28 -29 27 c-26 25 -29 34 -29 90 0 91 -2 94 -71 94 l-59 0 0 -275z"></path><path d="M2340 4725 l0 -277 153 4 c139 3 155 5 190 26 83 52 91 165 15 220 -16 12 -15 16 22 51 37 35 40 42 40 94 0 45 -5 61 -26 87 -48 56 -74 64 -241 68 l-153 4 0 -277z m279 161 c27 -25 28 -79 1 -106 -16 -16 -33 -20 -85 -20 l-65 0 0 76 0 76 64 -4 c45 -3 71 -10 85 -22z m-9 -226 c11 -11 20 -33 20 -50 0 -49 -30 -70 -100 -70 l-60 0 0 70 0 70 60 0 c47 0 64 -4 80 -20z"></path><path d="M2445 3775 c-55 -18 -131 -47 -170 -65 l-70 -31 40 -25 c22 -14 67 -40 100 -59 l60 -34 97 31 97 31 88 -28 c144 -44 287 -103 350 -144 73 -48 287 -235 373 -327 242 -257 410 -565 496 -908 12 -48 17 -151 21 -468 3 -225 2 -408 -2 -408 -5 0 -54 44 -109 98 -122 119 -268 218 -464 314 -79 38 -145 68 -147 66 -2 -2 36 -30 84 -62 209 -137 400 -329 506 -507 27 -46 68 -136 90 -199 l40 -115 0 -303 c0 -258 -2 -304 -15 -312 -8 -5 -44 -10 -80 -10 l-66 0 -21 -87 c-16 -66 -18 -90 -10 -95 7 -4 96 -8 200 -8 l187 0 0 1001 0 1002 -26 115 c-90 400 -301 771 -617 1078 -234 229 -447 364 -716 455 -143 48 -183 48 -316 4z"></path><path d="M2528 3173 l-3 -46 -70 -29 c-38 -15 -74 -28 -79 -28 -6 0 -23 12 -38 27 l-28 27 -50 -49 c-28 -27 -50 -54 -50 -60 0 -7 11 -22 24 -34 l24 -23 -31 -68 -32 -69 -42 -1 c-41 0 -42 0 -48 -43 -4 -23 -5 -58 -3 -77 3 -31 7 -36 37 -40 39 -6 41 -10 71 -103 l22 -69 -28 -29 -27 -28 47 -56 c26 -30 51 -55 55 -55 4 0 16 9 26 20 24 26 31 26 106 -11 35 -17 75 -36 89 -43 19 -9 26 -21 28 -49 l3 -37 80 0 79 0 0 40 c0 30 5 42 18 47 9 3 43 17 75 31 l58 25 30 -28 29 -29 55 54 c54 53 54 54 36 75 -32 35 -32 41 0 109 l31 66 44 0 44 0 0 43 c0 23 3 59 6 80 l7 37 -44 0 -44 1 -28 87 -28 87 31 28 32 28 -43 47 c-23 26 -46 51 -50 56 -6 6 -21 1 -39 -12 -37 -28 -38 -28 -107 7 -32 16 -70 33 -85 36 -26 7 -28 11 -28 56 l0 49 -79 0 -80 0 -3 -47z m177 -217 c146 -69 214 -229 151 -355 -48 -95 -163 -171 -256 -171 -49 0 -151 52 -191 97 -43 50 -79 130 -79 178 0 52 47 150 93 193 84 81 189 102 282 58z"></path><path d="M1785 2780 c-3 -5 -11 -61 -17 -124 -38 -389 147 -645 634 -880 107 -51 148 -76 148 -88 0 -10 8 -18 18 -18 12 0 26 23 50 80 32 79 41 130 23 130 -5 0 -11 -5 -13 -12 -3 -8 -22 -5 -64 12 -72 29 -70 26 -54 45 11 13 8 15 -19 15 -18 0 -50 -9 -71 -20 -22 -11 -40 -16 -40 -11 0 5 4 13 10 16 16 10 12 45 -5 45 -25 0 -125 53 -125 67 0 7 5 13 10 13 6 0 10 5 10 10 0 18 -50 10 -97 -15 -51 -27 -71 -24 -35 5 12 10 22 25 22 33 0 8 -10 18 -22 21 -13 4 -39 20 -58 36 -30 27 -33 33 -22 50 11 18 10 20 -20 20 -18 -1 -44 -7 -58 -15 -29 -17 -40 -18 -40 -7 0 5 11 15 25 22 26 14 35 50 12 50 -8 0 -26 23 -41 50 -24 43 -26 53 -14 67 12 15 9 16 -29 11 -50 -7 -56 6 -13 30 34 19 39 47 11 55 -28 7 -40 101 -15 128 17 18 16 19 -14 19 -38 0 -41 14 -7 36 28 18 33 49 10 58 -8 3 -15 11 -15 19 0 16 -41 57 -58 57 -6 0 -14 -4 -17 -10z"></path><path d="M2722 1742 c-18 -43 -32 -90 -32 -105 0 -24 2 -26 19 -16 15 10 31 7 82 -13 35 -14 65 -30 67 -36 1 -5 -28 -19 -65 -30 -116 -35 -123 -36 -123 -17 0 10 -6 15 -17 13 -19 -4 -51 -87 -52 -136 -1 -31 0 -32 22 -18 12 8 107 40 210 71 l188 57 74 -36 c41 -19 75 -39 75 -45 0 -5 -21 -16 -47 -25 -37 -12 -428 -125 -525 -152 -12 -4 -18 0 -18 10 0 9 -6 16 -13 16 -8 0 -18 -21 -25 -51 -15 -62 -15 -109 -2 -109 6 0 10 4 10 9 0 5 8 11 18 14 9 2 114 34 232 70 118 36 279 84 358 107 l143 42 37 -26 c65 -46 87 -65 82 -70 -5 -5 -122 -40 -561 -170 -292 -87 -319 -93 -319 -77 0 6 -4 11 -10 11 -6 0 -10 -32 -10 -75 0 -60 3 -75 15 -75 8 0 15 6 15 14 0 8 39 25 108 45 513 153 819 241 834 241 21 0 83 -90 71 -101 -13 -13 -946 -289 -975 -289 -10 0 -18 5 -18 10 0 6 -4 10 -10 10 -18 0 -10 -50 15 -100 18 -36 31 -50 46 -50 15 0 19 5 15 15 -3 8 2 19 12 24 17 9 312 98 759 230 95 28 179 51 187 51 16 0 21 -13 31 -76 6 -41 5 -42 -27 -53 -146 -47 -859 -252 -880 -254 -38 -3 -37 -32 3 -80 33 -40 81 -53 73 -19 -4 15 50 33 408 138 227 67 416 120 421 117 4 -2 7 -61 8 -131 0 -70 4 -147 7 -172 7 -43 8 -39 46 110 43 172 57 336 37 443 -47 252 -237 456 -591 631 -69 34 -172 82 -229 107 -65 28 -106 51 -109 62 -2 9 -12 17 -21 17 -12 0 -27 -24 -49 -78z"></path></g></g><g fill="rgb(17,75,242)"><g><path d="M1975 3539 c-101 -72 -221 -177 -320 -281 -260 -273 -446 -602 -541 -954 -36 -133 -42 -329 -43 -1371 l-1 -813 1220 0 1220 0 0 54 c0 29 -3 74 -6 100 l-7 46 -1113 0 -1114 0 0 908 c0 872 1 910 20 990 40 167 99 319 100 260 0 -7 5 -47 10 -88 34 -262 194 -448 522 -605 96 -46 269 -115 287 -115 3 0 -30 21 -74 46 -321 183 -507 406 -587 702 -29 110 -32 341 -4 392 90 167 401 489 579 598 20 13 37 27 37 30 0 4 -29 38 -63 75 l-62 69 -60 -43z"></path><path d="M2476 2986 c-110 -55 -176 -160 -176 -281 0 -121 62 -219 172 -275 112 -56 244 -37 338 47 76 68 100 123 100 228 0 71 -4 94 -24 133 -32 63 -90 119 -151 148 -71 34 -190 33 -259 0z m216 -132 c55 -28 95 -108 85 -171 -25 -151 -218 -195 -310 -71 -31 41 -34 117 -8 172 12 24 32 51 45 60 55 36 129 40 188 10z"></path></g></g><g fill="rgb(17,119,225)"><g><path d="M1833 2684 c-53 -41 -38 -116 19 -100 49 13 57 28 45 79 -6 26 -15 47 -21 47 -6 0 -26 -12 -43 -26z"></path><path d="M1900 2469 c-25 -11 -53 -27 -62 -36 -22 -19 -23 -66 -3 -83 15 -13 70 -5 81 11 3 5 23 18 45 29 l39 20 -20 40 c-11 22 -24 40 -28 39 -4 0 -27 -9 -52 -20z"></path><path d="M2001 2269 c-41 -21 -78 -44 -83 -51 -15 -24 -9 -67 12 -78 22 -12 57 3 163 68 l58 35 -33 34 c-17 18 -34 32 -37 32 -4 -1 -39 -19 -80 -40z"></path><path d="M2193 2119 c-86 -41 -109 -65 -99 -104 12 -47 52 -41 153 22 28 17 71 42 95 54 l43 22 -54 23 c-29 13 -54 24 -55 23 0 0 -38 -19 -83 -40z"></path><path d="M2845 2107 c-33 -10 -103 -21 -155 -24 -92 -5 -99 -7 -209 -64 -63 -33 -120 -64 -128 -71 -19 -15 -13 -68 9 -82 19 -12 61 8 231 106 48 27 90 48 93 46 4 -5 -50 -143 -64 -162 -31 -41 -172 -459 -197 -581 -23 -111 -30 -275 -16 -364 29 -185 142 -355 318 -478 64 -45 83 -44 83 6 0 35 -26 74 -101 153 -44 45 -78 94 -108 154 -43 85 -45 94 -53 209 -7 102 -5 131 11 200 11 44 24 105 30 136 7 30 20 71 31 91 10 19 29 69 41 109 12 41 41 115 65 164 23 50 49 111 58 136 8 26 40 111 71 189 31 78 55 143 53 145 -2 1 -30 -7 -63 -18z"></path></g></g></svg>
